<?xml version="1.0" standalone="no"?>
<!DOCTYPE svg PUBLIC "-//W3C//DTD SVG 20010904//EN"
 "http://www.w3.org/TR/2001/REC-SVG-20010904/DTD/svg10.dtd">
<svg version="1.0" xmlns="http://www.w3.org/2000/svg"
 width="1280.000000pt" height="1280.000000pt" viewBox="0 0 1280.000000 1280.000000"
 preserveAspectRatio="xMidYMid meet">

<g transform="translate(0.000000,1280.000000) scale(0.100000,-0.100000)"
fill="#000000" stroke="none">
<path d="M8320 9099 c-126 -19 -339 -96 -325 -119 3 -5 0 -12 -6 -16 -8 -4 -9
-3 -5 4 15 25 -12 10 -47 -26 -32 -33 -36 -42 -31 -71 6 -28 2 -37 -29 -69
-30 -32 -87 -128 -87 -148 0 -16 44 34 76 88 33 54 63 73 78 49 3 -4 -5 -6
-17 -4 -17 3 -27 -4 -41 -29 -32 -56 -89 -127 -98 -122 -4 3 -5 -2 -2 -10 4
-9 1 -16 -6 -16 -30 0 46 169 90 200 36 26 41 65 9 75 -74 24 -169 -54 -209
-171 l-24 -72 18 -60 c17 -54 19 -143 4 -157 -2 -3 -22 4 -43 15 -86 44 -133
18 -120 -66 7 -48 -8 -87 -56 -142 -16 -18 -29 -39 -29 -46 0 -7 25 -44 55
-82 30 -38 60 -85 66 -104 6 -19 15 -39 20 -44 16 -17 10 -35 -13 -38 -14 -2
-58 -46 -119 -118 -225 -269 -665 -655 -892 -784 -132 -75 -195 -90 -347 -83
-172 7 -240 27 -570 165 -694 288 -988 387 -1362 454 -115 21 -151 23 -573 23
-509 0 -517 -1 -764 -80 -389 -126 -720 -309 -1036 -576 -99 -83 -279 -267
-365 -374 -106 -130 -241 -341 -317 -495 -192 -392 -274 -766 -252 -1162 24
-437 152 -757 350 -875 177 -105 542 -156 1219 -169 227 -5 305 -3 384 9 98
15 99 15 116 -6 17 -20 30 -22 206 -29 168 -6 336 -21 824 -74 163 -18 550
-30 643 -20 56 6 67 11 67 26 0 31 16 32 114 6 51 -14 115 -26 140 -26 44 0
47 2 52 30 l6 29 37 -18 c28 -14 81 -21 241 -30 249 -14 628 -44 930 -72 197
-19 266 -21 555 -16 182 4 508 15 725 26 684 35 1714 36 2055 2 55 -5 179 -14
275 -21 207 -13 348 -24 644 -51 121 -11 232 -17 247 -14 40 9 54 30 41 59
l-10 23 51 -19 c76 -29 188 -48 280 -48 87 0 99 4 110 34 8 20 -9 53 -51 99
-30 31 -24 33 63 12 33 -8 99 -15 148 -15 84 0 88 1 99 25 9 21 8 28 -8 46
-63 70 -420 182 -731 228 -281 43 -341 54 -473 92 -74 21 -220 68 -325 105
-280 98 -364 124 -379 118 -8 -3 -25 1 -38 10 -13 8 -86 28 -163 45 -77 16
-167 38 -200 48 -55 18 -60 21 -57 46 1 14 -9 72 -24 129 -36 138 -36 250 -1
598 62 613 121 1001 174 1145 17 47 21 51 67 62 26 7 120 17 209 23 480 33
560 44 630 91 53 35 91 99 83 139 -5 28 -3 30 37 41 68 18 111 45 160 99 50
55 75 116 83 200 5 46 -15 350 -42 639 l-7 74 -71 75 c-139 147 -277 241 -465
319 -185 77 -417 134 -681 169 -148 19 -587 30 -783 19 l-137 -7 0 -38 c0 -22
-4 -42 -10 -45 -5 -3 -10 -19 -10 -36 0 -16 -4 -29 -10 -29 -5 0 -10 10 -10
23 0 21 -1 21 -23 -7 -17 -21 -26 -26 -32 -17 -4 7 -2 18 4 24 16 16 14 27 -4
21 -25 -10 -17 12 11 26 14 8 33 27 41 44 l15 29 -84 -7 c-95 -9 -228 -32
-275 -49 -38 -13 -41 -26 -13 -52 11 -10 20 -22 20 -28 0 -5 -28 16 -61 48
-34 31 -97 81 -140 112 l-79 55 22 40 c13 22 36 49 53 61 16 11 35 25 40 31 6
6 33 23 60 38 40 21 52 24 62 13 23 -25 174 -59 268 -59 75 0 97 4 135 23 57
29 81 51 73 64 -3 6 -1 7 5 3 24 -15 82 88 111 196 25 91 30 143 14 143 -6 0
-15 4 -20 9 -4 5 -3 6 4 2 15 -8 37 30 27 46 -4 7 -3 8 4 4 7 -4 17 4 24 20
10 22 10 28 -5 39 -9 7 -17 20 -17 29 0 14 -13 16 -97 15 -54 -1 -123 -5 -153
-10z m188 -6 c-21 -2 -55 -2 -75 0 -21 2 -4 4 37 4 41 0 58 -2 38 -4z m-130
-10 c-10 -2 -28 -2 -40 0 -13 2 -5 4 17 4 22 1 32 -1 23 -4z m-91 -9 c-3 -3
-12 -4 -19 -1 -8 3 -5 6 6 6 11 1 17 -2 13 -5z m-40 -10 c-3 -3 -12 -4 -19 -1
-8 3 -5 6 6 6 11 1 17 -2 13 -5z m-57 -14 c-8 -5 -22 -9 -30 -9 -10 0 -8 3 5
9 27 12 43 12 25 0z m-60 -20 c-8 -5 -22 -9 -30 -9 -10 0 -8 3 5 9 27 12 43
12 25 0z m-51 -14 c-2 -2 -15 -9 -29 -15 -24 -11 -24 -11 -6 3 16 13 49 24 35
12z m-119 -69 c0 -2 -10 -12 -22 -23 l-23 -19 19 23 c18 21 26 27 26 19z m587
-49 c-3 -7 -5 -2 -5 12 0 14 2 19 5 13 2 -7 2 -19 0 -25z m-13 -72 c-3 -15 -8
-25 -11 -23 -2 3 -1 17 3 31 3 15 8 25 11 23 2 -3 1 -17 -3 -31z m-606 -114
c-32 -48 -68 -118 -68 -132 0 -8 7 -8 23 0 21 11 21 10 3 -4 -10 -9 -22 -13
-27 -11 -4 3 -10 -1 -12 -7 -4 -9 -6 -8 -6 2 -1 21 100 203 108 195 2 -3 -7
-22 -21 -43z m565 -7 c-3 -9 -8 -14 -10 -11 -3 3 -2 9 2 15 9 16 15 13 8 -4z
m-23 -44 c-5 -11 -15 -23 -21 -27 -6 -3 -3 5 6 20 20 30 30 35 15 7z m-105
-101 c-3 -5 -12 -10 -18 -10 -7 0 -6 4 3 10 19 12 23 12 15 0z m-285 -10 c20
-6 21 -8 5 -8 -11 0 -29 3 -40 8 -25 11 1 11 35 0z m87 -16 c-3 -3 -12 -4 -19
-1 -8 3 -5 6 6 6 11 1 17 -2 13 -5z m126 -1 c-7 -2 -19 -2 -25 0 -7 3 -2 5 12
5 14 0 19 -2 13 -5z m-55 -10 c-10 -2 -28 -2 -40 0 -13 2 -5 4 17 4 22 1 32
-1 23 -4z m-531 -449 c-3 -3 -12 -4 -19 -1 -8 3 -5 6 6 6 11 1 17 -2 13 -5z
m1091 -117 c4 -20 -25 -34 -40 -19 -15 15 -1 44 19 40 10 -2 19 -11 21 -21z"/>
</g>
</svg>
