<svg xmlns="http://www.w3.org/2000/svg" xmlns:xlink="http://www.w3.org/1999/xlink" width="700" zoomAndPan="magnify" viewBox="0 0 525 525.000007" height="700" preserveAspectRatio="xMidYMid meet" version="1.0"><defs><clipPath id="4d13e08836"><path d="M 299.226562 512.085938 L 337 512.085938 L 337 523.316406 L 299.226562 523.316406 Z M 299.226562 512.085938 " clip-rule="nonzero"/></clipPath><clipPath id="0b85f3c5ad"><path d="M 375 505 L 417 505 L 417 523.316406 L 375 523.316406 Z M 375 505 " clip-rule="nonzero"/></clipPath><clipPath id="25b25e36c1"><path d="M 233.011719 512.085938 L 276 512.085938 L 276 523.316406 L 233.011719 523.316406 Z M 233.011719 512.085938 " clip-rule="nonzero"/></clipPath><clipPath id="8100ab4696"><path d="M 210 513 L 249.949219 513 L 249.949219 523.316406 L 210 523.316406 Z M 210 513 " clip-rule="nonzero"/></clipPath><clipPath id="7425d8534c"><path d="M 435 196.265625 L 524.128906 196.265625 L 524.128906 319.511719 L 435 319.511719 Z M 435 196.265625 " clip-rule="nonzero"/></clipPath><clipPath id="8e9d2b5056"><path d="M 0.5 45 L 106 45 L 106 133 L 0.5 133 Z M 0.5 45 " clip-rule="nonzero"/></clipPath></defs><path fill="#ccefe8" d="M 65.726562 32.214844 C 70.496094 -9.507812 112.046875 -11.445312 112.046875 -11.445312 C 205.011719 -16.203125 199.226562 44.511719 172.28125 80.835938 L 173.128906 111.464844 L 160.050781 94.296875 C 152.855469 100.6875 145.117188 105.148438 137.761719 106.554688 C 93.945312 114.960938 60.960938 73.9375 65.726562 32.214844 " fill-opacity="1" fill-rule="nonzero"/><path fill="#f29579" d="M 189.1875 57.339844 C 197.1875 40.183594 315.34375 48.769531 317.246094 51.625 C 324.109375 61.921875 321.824219 110.472656 313.824219 117.332031 C 309.660156 120.894531 278.148438 122.171875 247.640625 121.359375 L 237.210938 141.355469 L 233.480469 120.824219 C 210.816406 119.699219 191.371094 117.363281 188.050781 113.902344 C 179.726562 105.230469 181.183594 74.503906 189.1875 57.339844 " fill-opacity="1" fill-rule="nonzero"/><path fill="#f7bcaa" d="M 200.820312 407.6875 L 179.664062 519.445312 L 172.230469 520.042969 C 172.230469 520.042969 162.515625 438.167969 168.230469 405.898438 C 179.09375 401.113281 200.820312 407.6875 200.820312 407.6875 " fill-opacity="1" fill-rule="nonzero"/><path fill="#f7bcaa" d="M 177.378906 385.578125 C 177.378906 385.578125 177.378906 414.859375 177.953125 422.628906 C 175.09375 436.375 142.792969 516.753906 142.792969 516.753906 L 136.792969 519.445312 C 136.792969 519.445312 133.355469 445.546875 145.363281 415.261719 C 159.082031 398.128906 177.378906 385.578125 177.378906 385.578125 " fill-opacity="1" fill-rule="nonzero"/><path fill="#3d3542" d="M 181.953125 507.191406 C 185.574219 514.960938 200.929688 516.027344 200.53125 520.945312 C 199.882812 522.78125 173.613281 521.671875 172.496094 521.058594 C 170.300781 519.824219 171.089844 508.691406 171.089844 508.691406 C 171.089844 508.691406 178.242188 511.082031 181.953125 507.191406 " fill-opacity="1" fill-rule="nonzero"/><path fill="#3d3542" d="M 146.222656 508.691406 C 146.222656 508.691406 157.195312 515.273438 164.804688 516.160156 C 172.417969 517.042969 167.902344 520.347656 164.519531 521.238281 C 161.132812 522.117188 131.859375 521.707031 131.070312 520.042969 C 129.5625 516.847656 136.917969 507.511719 136.917969 507.511719 L 146.222656 508.691406 " fill-opacity="1" fill-rule="nonzero"/><path fill="#42756d" d="M 145.363281 415.261719 C 135.078125 369.046875 135.984375 339.128906 142.386719 315.003906 C 148.074219 315.660156 153.398438 317.183594 158.257812 319.101562 C 157.914062 316.015625 157.722656 314.253906 157.722656 314.253906 L 202.710938 309.023438 C 202.710938 309.023438 219.304688 347.285156 200.628906 411.832031 C 185.332031 416.21875 166.769531 417.226562 145.363281 415.261719 " fill-opacity="1" fill-rule="nonzero"/><path fill="#943e38" d="M 328.753906 323.0625 C 355.875 327.734375 370.417969 328.503906 398.417969 328.164062 C 397.136719 354.753906 397.894531 387.859375 390.511719 409.972656 C 394.851562 424.140625 398.097656 482.988281 388.347656 514.355469 C 387.265625 515.378906 381.847656 513.847656 381.847656 513.847656 C 381.847656 513.847656 373.167969 434.261719 366.136719 418.578125 C 359.078125 402.882812 357.648438 359.65625 357.648438 359.65625 C 357.648438 359.65625 357.226562 376.609375 334.941406 419.535156 C 342.707031 436.511719 346.296875 459.074219 333.070312 516.382812 C 331.441406 516.894531 325.3125 516.207031 325.3125 516.207031 C 325.3125 516.207031 319.464844 445.09375 314.09375 418.578125 C 315.941406 398.714844 322.351562 353.277344 328.753906 323.0625 " fill-opacity="1" fill-rule="nonzero"/><path fill="#3d3542" d="M 389.386719 510.183594 C 392.566406 516.726562 401.339844 517.671875 400.996094 521.796875 C 400.425781 523.351562 381.847656 522.832031 380.871094 522.316406 C 378.933594 521.28125 381.507812 511.496094 381.507812 511.496094 C 381.507812 511.496094 387.324219 514.578125 389.386719 510.183594 " fill-opacity="1" fill-rule="nonzero"/><g clip-path="url(#4d13e08836)"><path fill="#3d3542" d="M 333.863281 512.121094 C 333.863281 512.121094 338.097656 522.191406 336.433594 522.832031 C 334.765625 523.476562 302.394531 523.699219 300.113281 522.058594 C 296.175781 519.21875 312.523438 517.410156 314.949219 516.894531 C 317.371094 516.382812 324.878906 512.640625 324.878906 512.640625 C 324.878906 512.640625 331.898438 514.3125 333.863281 512.121094 " fill-opacity="1" fill-rule="nonzero"/></g><path fill="#943e38" d="M 369.269531 360.253906 C 369.269531 360.253906 345.246094 412.144531 330.269531 420.277344 C 345.679688 365.902344 353.859375 339.703125 369.269531 360.253906 " fill-opacity="1" fill-rule="nonzero"/><path fill="#ffffff" d="M 144.765625 322.804688 C 144.765625 322.804688 151.625 323.476562 161.484375 323.4375 C 166.511719 323.410156 172.347656 323.183594 178.445312 322.558594 C 183.328125 322.105469 188.386719 321.378906 193.363281 320.300781 C 193.859375 299.140625 193.335938 279.992188 192.363281 263.546875 C 191.660156 251.703125 190.734375 241.261719 189.765625 232.476562 L 189.765625 232.371094 C 188.207031 218.300781 186.605469 208.542969 185.855469 204.152344 C 185.378906 203.957031 184.90625 203.734375 184.375 203.503906 C 180.75 201.953125 176.425781 200.550781 171.839844 199.953125 C 168.585938 199.503906 165.210938 199.476562 161.832031 200.082031 C 161.332031 200.175781 160.832031 200.277344 160.328125 200.375 C 159.882812 200.5 159.457031 200.628906 159.003906 200.753906 L 155.328125 232.269531 L 153.019531 251.929688 L 144.765625 322.804688 " fill-opacity="1" fill-rule="nonzero"/><path fill="#f29579" d="M 133.082031 338.980469 C 139.636719 346.0625 152.953125 345.839844 158.03125 336.574219 C 159.726562 333.46875 160.832031 328.988281 161.484375 323.4375 C 164.238281 300.296875 159.402344 258.855469 159.804688 224.261719 C 159.882812 217.328125 160.183594 210.640625 160.785156 204.429688 C 160.804688 203.957031 160.855469 203.503906 160.90625 203.054688 C 160.832031 201.902344 160.628906 201.023438 160.328125 200.375 C 159.882812 200.5 159.457031 200.628906 159.003906 200.753906 C 154.523438 202.054688 150.175781 204.605469 146.21875 208.960938 C 146.191406 208.9375 146.191406 208.9375 146.191406 208.914062 C 146.113281 209.035156 146.042969 209.160156 145.96875 209.289062 C 141.789062 216.125 137.308594 227.589844 135.628906 246.117188 C 134.902344 254.253906 134.726562 263.769531 135.382812 274.859375 C 135.460938 276.0625 135.535156 277.3125 135.628906 278.566406 C 137.761719 307.957031 124.648438 329.839844 133.082031 338.980469 " fill-opacity="1" fill-rule="nonzero"/><path fill="#f29579" d="M 178.445312 322.558594 C 178.949219 328.941406 179.828125 333.824219 181.167969 336.574219 C 186.558594 347.511719 208.828125 345.714844 214.132812 337.402344 C 219.441406 329.117188 220.789062 317.296875 219.714844 304.003906 C 216.957031 269.179688 197.621094 224.1875 189.085938 205.738281 C 188.4375 205.410156 187.757812 205.058594 187.035156 204.707031 C 186.65625 204.535156 186.257812 204.351562 185.855469 204.152344 C 185.378906 203.957031 184.90625 203.734375 184.375 203.503906 C 182.277344 224.210938 175.941406 291.210938 178.445312 322.558594 " fill-opacity="1" fill-rule="nonzero"/><path fill="#f29579" d="M 188.238281 258.214844 C 189.609375 259.933594 190.984375 261.714844 192.363281 263.546875 C 201.9375 276.160156 211.585938 290.859375 219.714844 304.003906 C 232.222656 324.15625 241.234375 340.707031 241.234375 340.707031 C 241.234375 340.707031 241.234375 340.707031 245.492188 337.878906 C 235.476562 257.335938 208.730469 222.257812 195.039062 209.238281 C 195.039062 209.261719 195.039062 209.289062 195.011719 209.3125 C 195.011719 209.3125 192.753906 207.664062 189.085938 205.738281 C 188.4375 205.410156 187.757812 205.058594 187.035156 204.707031 C 187.707031 209.261719 189.207031 220.679688 189.765625 232.371094 L 189.765625 232.476562 C 190.210938 242.085938 190.035156 251.875 188.238281 258.214844 " fill-opacity="1" fill-rule="nonzero"/><path fill="#f29579" d="M 125.121094 253.707031 C 125.121094 253.707031 129.753906 281.148438 135.628906 278.566406 C 139.414062 276.886719 143.691406 243.765625 147.570312 246.0625 C 149.523438 247.195312 151.371094 249.070312 153.019531 251.929688 C 154.101562 253.777344 155.078125 256.011719 155.925781 258.710938 C 155.574219 247.84375 156.003906 238.058594 156.804688 229.617188 C 157.800781 218.957031 159.402344 210.390625 160.785156 204.429688 C 161.152344 202.78125 161.53125 201.324219 161.832031 200.082031 C 161.332031 200.175781 160.832031 200.277344 160.328125 200.375 C 159.882812 200.5 159.457031 200.628906 159.003906 200.753906 C 154.523438 202.054688 150.175781 204.628906 146.21875 208.988281 C 146.191406 208.960938 146.191406 208.9375 146.191406 208.914062 C 146.089844 208.738281 146.265625 209.160156 146.21875 208.988281 C 132.375 226.46875 125.550781 252.003906 125.152344 253.628906 C 125.121094 253.675781 125.121094 253.707031 125.121094 253.707031 " fill-opacity="1" fill-rule="nonzero"/><path fill="#f7bcaa" d="M 182.980469 176.308594 C 190.378906 179.082031 193.777344 206.71875 184.617188 209.949219 C 168.09375 215.769531 158.058594 193.4375 158.058594 193.4375 C 158.058594 193.4375 151.839844 164.621094 182.980469 176.308594 " fill-opacity="1" fill-rule="nonzero"/><path fill="#ed6a66" d="M 161.957031 165.152344 C 161.957031 162.679688 164.832031 159.445312 171.40625 159.085938 C 177.902344 158.71875 179.738281 164.042969 179.871094 166.246094 C 187.324219 165.839844 189.953125 169.4375 191.871094 171.902344 C 193.808594 174.402344 196.148438 182.816406 189.53125 185.855469 C 189.53125 185.855469 189.398438 185.890625 189.15625 185.984375 C 188.40625 186.246094 187.683594 186.417969 186.945312 186.472656 C 186.8125 186.472656 186.660156 186.492188 186.488281 186.515625 C 182.5 186.980469 175.226562 186.4375 168.6875 178.570312 C 172.699219 193.542969 168.046875 222.191406 163.539062 221.160156 C 153.742188 218.929688 146.054688 210.941406 144.414062 205.339844 C 139.761719 189.5 147.46875 160.585938 161.957031 165.152344 " fill-opacity="1" fill-rule="nonzero"/><path fill="#f7bcaa" d="M 401.609375 506.574219 L 398.316406 492.71875 L 410.695312 490.4375 L 412.292969 505.109375 L 401.609375 506.574219 " fill-opacity="1" fill-rule="nonzero"/><path fill="#f7bcaa" d="M 462.488281 506.261719 L 460.21875 487.109375 L 474.277344 485.328125 L 473.242188 505.609375 L 462.488281 506.261719 " fill-opacity="1" fill-rule="nonzero"/><g clip-path="url(#0b85f3c5ad)"><path fill="#3d3542" d="M 416.039062 522.808594 C 416.039062 522.808594 375.566406 524.441406 375.566406 520.3125 C 375.566406 517.183594 396.773438 511.789062 398.207031 510.414062 C 403.0625 505.707031 401.609375 506.574219 401.609375 506.574219 L 412.292969 505.109375 C 412.292969 505.109375 419.179688 518.050781 416.039062 522.808594 " fill-opacity="1" fill-rule="nonzero"/></g><path fill="#3d3542" d="M 475.804688 521.636719 C 475.804688 521.636719 436.171875 524.265625 435.488281 520.539062 C 434.914062 517.453125 457.320312 511.105469 458.835938 509.824219 C 463.992188 505.507812 462.488281 506.261719 462.488281 506.261719 L 473.242188 505.609375 C 473.242188 505.609375 479.269531 517.121094 475.804688 521.636719 " fill-opacity="1" fill-rule="nonzero"/><path fill="#f29579" d="M 398.898438 358.90625 C 398.898438 358.90625 386.40625 394.117188 385.929688 420.035156 C 385.179688 460.691406 392.972656 490.53125 394.5 496.765625 C 398.5625 499.296875 416.402344 495.757812 416.402344 495.757812 C 416.402344 495.757812 413.640625 460.433594 418.789062 428.164062 C 423.058594 401.386719 435.125 383.332031 437.542969 383.808594 C 444.359375 385.136719 445.964844 451.390625 450.644531 493.007812 C 453.183594 494.996094 474.109375 493.292969 474.109375 493.292969 C 474.109375 493.292969 479.523438 380.046875 473.933594 339.941406 C 466.820312 322.605469 452.101562 321.570312 452.101562 321.570312 L 409.097656 326.636719 L 398.898438 358.90625 " fill-opacity="1" fill-rule="nonzero"/><path fill="#8eaca6" d="M 319.996094 352.164062 C 298.070312 282.25 318.648438 239.859375 323.394531 229.660156 L 323.398438 229.628906 L 323.421875 229.59375 C 328.402344 218.921875 333.011719 216.671875 333.011719 216.671875 L 333 216.71875 C 333.003906 216.71875 333.003906 216.714844 333.011719 216.714844 C 333.433594 216.402344 333.851562 216.140625 334.296875 215.859375 C 337.628906 213.722656 341.214844 211.941406 344.992188 210.4375 C 347.765625 209.347656 350.707031 208.414062 353.714844 207.734375 C 360.347656 206.199219 362.550781 205.910156 362.550781 205.910156 C 362.550781 205.910156 364.03125 205.917969 366.585938 206.109375 C 367.007812 206.144531 367.488281 206.1875 367.964844 206.242188 C 367.992188 206.21875 368.042969 206.253906 368.101562 206.230469 C 371.945312 206.808594 376.960938 208.320312 379.714844 209.539062 C 383.230469 211.085938 387.296875 213.234375 391.445312 216.230469 C 392.734375 217.128906 394.015625 218.132812 395.296875 219.21875 L 395.296875 219.199219 C 395.332031 219.234375 395.367188 219.257812 395.402344 219.289062 C 409.953125 231.535156 428.847656 257.273438 430.734375 300.699219 C 431.046875 307.910156 404.628906 337.78125 402.433594 348.914062 C 371.824219 356.945312 351.6875 348.441406 340.011719 340.609375 C 339.550781 347.332031 323.074219 362 319.996094 352.164062 " fill-opacity="1" fill-rule="nonzero"/><path fill="#f7bcaa" d="M 363.488281 211.484375 C 363.488281 211.484375 373.976562 210.59375 373.390625 217.195312 C 372.792969 223.808594 366.371094 231.335938 359.375 232.082031 C 352.390625 232.828125 346.09375 220.234375 347.230469 216.230469 C 348.378906 212.230469 363.488281 211.484375 363.488281 211.484375 " fill-opacity="1" fill-rule="nonzero"/><path fill="#f7bcaa" d="M 363.402344 197.425781 C 363.402344 197.425781 367.78125 158.617188 349.261719 163.839844 C 330.75 169.0625 326.414062 183.589844 331.875 194.933594 C 337.328125 206.285156 353.125 201.734375 353.125 201.734375 L 363.402344 197.425781 " fill-opacity="1" fill-rule="nonzero"/><path fill="#42756d" d="M 363.402344 197.425781 C 363.402344 197.425781 382.183594 192.304688 370.609375 181.695312 C 373.730469 172.769531 379.109375 162.003906 367.351562 160.757812 C 362.964844 153.929688 349.484375 139.890625 344.710938 151.214844 C 337.652344 150.347656 324.132812 138.671875 324.738281 152.699219 C 325.347656 166.714844 322.453125 177.351562 330.699219 178.746094 C 340.625 178.3125 360.191406 183.71875 363.402344 197.425781 " fill-opacity="1" fill-rule="nonzero"/><path fill="#f3bbaa" d="M 346.695312 183.320312 C 346.695312 183.320312 359.554688 169.585938 354.722656 186.480469 C 350.71875 188.410156 346.695312 183.320312 346.695312 183.320312 " fill-opacity="1" fill-rule="nonzero"/><path fill="#f3bbaa" d="M 363.402344 197.425781 C 363.402344 197.425781 366.5 214.421875 366.328125 217.933594 C 366.398438 219.53125 348.257812 223.863281 346.019531 202.257812 C 349.359375 198.269531 363.402344 197.425781 363.402344 197.425781 " fill-opacity="1" fill-rule="nonzero"/><path fill="#f3bbaa" d="M 287.152344 264.214844 C 287.152344 264.214844 295.226562 281.480469 296.53125 289.953125 C 302.71875 275.285156 314.859375 269.21875 322.191406 258.628906 C 323.074219 257.347656 328.480469 252.652344 330.875 252.398438 C 333.4375 252.125 333.035156 256.328125 335.632812 256.054688 C 341.394531 255.425781 354.027344 248.964844 353.507812 251.882812 C 350.695312 267.859375 327.8125 263.875 327.8125 263.875 C 327.8125 263.875 309.445312 321.179688 293.277344 320.605469 C 277.101562 320.023438 264.589844 292.5625 264.589844 292.5625 L 287.152344 264.214844 " fill-opacity="1" fill-rule="nonzero"/><path fill="#3d3542" d="M 244.988281 513.164062 L 238.367188 513.164062 C 233.210938 500.488281 217.492188 454.925781 236.800781 432.828125 C 235.6875 427.703125 204.355469 351.101562 214.90625 329.664062 C 225.457031 308.226562 252.40625 285.265625 270.652344 323.0625 C 270.652344 323.0625 278.628906 366.019531 254.003906 440.761719 C 249.816406 448.101562 242.875 509.101562 244.988281 513.164062 " fill-opacity="1" fill-rule="nonzero"/><path fill="#3d3542" d="M 222.503906 513.820312 C 222.503906 513.820312 222.5 513.8125 222.503906 513.820312 L 214.660156 513.652344 C 211.742188 501.765625 199.59375 451.886719 222.539062 432.089844 C 222.160156 426.859375 201.921875 346.617188 215.375 326.871094 C 228.839844 307.132812 258.738281 288.195312 271.496094 328.179688 C 271.496094 328.179688 273.347656 371.832031 238.460938 442.367188 C 233.191406 449.175781 219.304688 505.621094 222.503906 513.820312 " fill-opacity="1" fill-rule="nonzero"/><path fill="#ccefe8" d="M 279.933594 349.515625 C 279.484375 350.949219 277.867188 352.90625 275.304688 354.945312 C 272.878906 356.859375 269.632812 358.851562 265.726562 360.535156 C 261.59375 362.335938 256.730469 363.804688 251.394531 364.449219 C 239.09375 366.011719 224.253906 363.371094 209.746094 351.125 C 209.492188 350.226562 209.234375 349.308594 208.984375 348.324219 C 208.394531 345.902344 207.871094 343.242188 207.402344 340.40625 C 205.847656 330.878906 205.132812 319.242188 205.351562 306.933594 C 205.757812 284.691406 208.984375 260.191406 216.800781 242.441406 C 236.710938 223.652344 254.707031 214.523438 259.628906 214.980469 C 270.078125 215.949219 280 228.839844 283.921875 243.96875 C 283.945312 243.988281 283.945312 243.988281 283.921875 244.003906 C 285.554688 250.203125 286.585938 257.074219 287.152344 264.214844 C 287.253906 265.464844 287.351562 266.714844 287.40625 267.988281 C 289.515625 304.003906 281.167969 345.648438 279.933594 349.515625 " fill-opacity="1" fill-rule="nonzero"/><path fill="#f3bbaa" d="M 258.269531 268.636719 C 258.269531 268.636719 282.628906 250.628906 278.960938 262.082031 C 275.296875 273.546875 273.421875 277.542969 262.214844 275.242188 C 255.28125 273.816406 258.269531 268.636719 258.269531 268.636719 " fill-opacity="1" fill-rule="nonzero"/><path fill="#f3bbaa" d="M 262.222656 275.007812 C 243.4375 311.660156 195.238281 313.386719 187.09375 297.917969 C 178.164062 280.984375 198.949219 257.675781 218.257812 241.144531 C 220.320312 247.277344 225.742188 261.589844 240.398438 268.292969 C 234.148438 273.578125 226.695312 278.769531 217.992188 283.589844 C 232.765625 286.011719 259.015625 268.125 259.015625 268.125 C 259.015625 268.125 262.558594 274.652344 262.222656 275.007812 " fill-opacity="1" fill-rule="nonzero"/><g clip-path="url(#25b25e36c1)"><path fill="#e95955" d="M 238.117188 512.429688 C 238.117188 512.429688 232.277344 521.234375 233.621094 521.847656 C 234.96875 522.453125 273.242188 524.097656 275.074219 522.539062 C 278.257812 519.855469 254.726562 515.75 252.765625 515.257812 C 250.816406 514.769531 244.988281 513.164062 244.988281 513.164062 C 244.988281 513.164062 242.15625 512.917969 238.117188 512.429688 " fill-opacity="1" fill-rule="nonzero"/></g><g clip-path="url(#8100ab4696)"><path fill="#e95955" d="M 214.660156 513.652344 C 214.660156 513.652344 209.792969 521.890625 211.140625 522.496094 C 212.488281 523.109375 247.648438 523.628906 249.480469 522.074219 C 252.664062 519.386719 233.582031 517.394531 231.636719 516.90625 C 229.675781 516.417969 222.503906 513.820312 222.503906 513.820312 C 222.503906 513.820312 219.625 513.445312 214.660156 513.652344 " fill-opacity="1" fill-rule="nonzero"/></g><path fill="#f3bbaa" d="M 250.394531 191.570312 C 250.394531 191.570312 251.816406 202.089844 258.082031 205.929688 C 264.34375 209.773438 258.992188 214.179688 259.296875 217.453125 C 259.554688 220.28125 261.558594 229.808594 268.023438 225.964844 C 274.492188 222.117188 272.890625 209.816406 275.320312 212.472656 C 276.066406 213.269531 281.125 215.972656 283.410156 215.839844 C 286.3125 215.660156 294.058594 206.675781 294.460938 204.515625 C 294.972656 201.730469 292.234375 195.285156 289.203125 192.117188 C 286.167969 188.941406 250.394531 189.957031 250.394531 191.570312 " fill-opacity="1" fill-rule="nonzero"/><path fill="#f3bbaa" d="M 289.203125 192.117188 C 289.203125 192.117188 292.847656 186.148438 292.703125 184.566406 C 292.703125 184.566406 245.816406 153.027344 250.394531 191.570312 C 260.367188 196.15625 289.203125 192.117188 289.203125 192.117188 " fill-opacity="1" fill-rule="nonzero"/><path fill="#3d3542" d="M 255.789062 203.703125 C 255.789062 203.703125 238.957031 195.886719 245.960938 177.554688 C 247.492188 173.546875 260.769531 168.113281 271.851562 165.472656 C 278.484375 163.875 278.429688 156.527344 286.375 164.617188 C 295.730469 174.136719 292.703125 184.566406 292.703125 184.566406 L 278.964844 182.132812 C 278.964844 182.132812 269.265625 193.460938 255.789062 203.703125 " fill-opacity="1" fill-rule="nonzero"/><path fill="#f3bbaa" d="M 272.765625 189.6875 C 272.765625 189.6875 261.714844 182.410156 266.5625 195.621094 C 271.683594 195.621094 272.765625 189.6875 272.765625 189.6875 " fill-opacity="1" fill-rule="nonzero"/><g clip-path="url(#7425d8534c)"><path fill="#ed6a66" d="M 447.300781 201.152344 C 447.300781 201.152344 456.394531 202.558594 461.988281 208.089844 C 467.589844 213.613281 464.738281 217.097656 466.664062 220.402344 C 468.574219 223.699219 478.949219 219.355469 485.367188 225.230469 C 491.78125 231.101562 486.710938 239.023438 491.414062 244.703125 C 496.125 250.382812 507.269531 245.46875 514.65625 255.679688 C 547.078125 300.488281 487.546875 331.113281 466.664062 314.972656 C 451.324219 303.125 430.957031 218.902344 436.640625 203.835938 C 442.324219 188.761719 447.300781 201.152344 447.300781 201.152344 " fill-opacity="1" fill-rule="nonzero"/></g><path fill="#4a7eff" d="M 457.496094 375.226562 C 447.984375 350.980469 446.765625 333.089844 446.765625 333.089844 L 468.703125 333.089844 C 468.703125 333.089844 469.890625 355.445312 470.179688 375.226562 L 457.496094 375.226562 " fill-opacity="1" fill-rule="nonzero"/><path fill="#f37d59" d="M 392.046875 375.226562 C 391.492188 358.851562 391.667969 345.167969 391.636719 335.527344 L 398.253906 334.820312 L 449.832031 329.128906 C 449.832031 329.128906 458.652344 350.460938 467.179688 369.960938 C 467.613281 371.640625 468.011719 373.410156 468.390625 375.226562 L 392.046875 375.226562 " fill-opacity="1" fill-rule="nonzero"/><path fill="#42756d" d="M 477.332031 392.953125 C 471.28125 403.003906 393.90625 395.300781 391.210938 386.445312 C 389.269531 371.410156 385.25 324.976562 386.683594 310.539062 C 393.796875 238.292969 412.355469 235.773438 412.355469 235.773438 C 412.355469 235.773438 419.1875 236.246094 419.746094 234.25 C 496.417969 229.929688 483.160156 337.378906 483.160156 337.378906 C 483.160156 337.378906 482.164062 377.757812 477.332031 392.953125 " fill-opacity="1" fill-rule="nonzero"/><path fill="#f7bcaa" d="M 423.242188 296.632812 C 434.417969 293.375 450.902344 318.007812 474.242188 306.308594 C 471.492188 303.339844 468.449219 299.394531 465.40625 295.007812 C 466.933594 294.476562 468.472656 293.953125 470.035156 293.460938 C 477.839844 290.976562 485.1875 291.503906 492.929688 291.96875 C 493.160156 293.015625 493.394531 294.066406 493.621094 295.15625 C 502.535156 337.398438 478.402344 351.558594 433.910156 312.628906 C 433.910156 312.628906 429.695312 310.773438 419.789062 311.640625 C 404.292969 314.957031 397.703125 304.074219 423.242188 296.632812 " fill-opacity="1" fill-rule="nonzero"/><path fill="#42756d" d="M 452.9375 235.277344 C 452.9375 235.277344 483.996094 245.574219 493.621094 295.15625 C 490 294.765625 477.710938 298.683594 471.613281 303.15625 C 455.367188 294.621094 424.839844 259.742188 430.730469 249.582031 C 436.617188 239.429688 437.050781 223.953125 452.9375 235.277344 " fill-opacity="1" fill-rule="nonzero"/><path fill="#ffffff" d="M 440.550781 222.695312 C 440.550781 222.695312 457.929688 224.855469 455.984375 236.421875 C 454.039062 247.984375 432.367188 249.4375 426.878906 248.8125 C 421.386719 248.1875 412.882812 245.851562 410.199219 240.085938 C 406.964844 233.125 414.875 218.5625 440.550781 222.695312 " fill-opacity="1" fill-rule="nonzero"/><path fill="#f3bbaa" d="M 423.210938 209.210938 C 423.210938 209.210938 417.273438 232.054688 431.390625 234.414062 C 437.058594 235.363281 439.480469 231.320312 439.980469 229.175781 C 441.4375 223.050781 436.28125 216.351562 438.457031 206.820312 C 431.011719 207.433594 423.210938 209.210938 423.210938 209.210938 " fill-opacity="1" fill-rule="nonzero"/><path fill="#f7bcaa" d="M 439.34375 204.171875 C 438.898438 206.117188 438.300781 209.835938 437.945312 211.671875 C 436.273438 220.335938 428.546875 220.421875 418.910156 219.953125 C 399.285156 219 402.664062 182.160156 427.132812 182.839844 C 435.445312 183.074219 441.765625 193.550781 439.34375 204.171875 " fill-opacity="1" fill-rule="nonzero"/><path fill="#ed6a66" d="M 406.65625 200.367188 C 391.832031 178.703125 425.058594 166.191406 431.230469 178.570312 C 457.128906 178.847656 459.984375 206.578125 437.945312 211.671875 C 441.105469 193.316406 430.421875 194.945312 430.183594 187.429688 C 424.894531 199.910156 407.726562 201.933594 406.65625 200.367188 " fill-opacity="1" fill-rule="nonzero"/><path fill="#f7bcaa" d="M 436 204.101562 C 437.710938 205.097656 440.167969 204.089844 441.484375 201.84375 C 442.789062 199.59375 442.46875 196.960938 440.761719 195.964844 C 439.042969 194.957031 436.59375 195.96875 435.277344 198.214844 C 433.972656 200.460938 434.289062 203.09375 436 204.101562 " fill-opacity="1" fill-rule="nonzero"/><path fill="#ffffff" d="M 123.382812 243.320312 C 123.382812 243.320312 133.875 264.273438 134.699219 270.808594 C 135.636719 278.296875 151.558594 320.246094 140.871094 346.242188 L 134.699219 345.816406 C 134.699219 345.816406 127.707031 325.957031 124.820312 307.03125 C 120.78125 280.496094 121.460938 249.121094 123.382812 243.320312 " fill-opacity="1" fill-rule="nonzero"/><path fill="#87806e" d="M 99.9375 509.695312 L 92.203125 509.695312 C 86.183594 494.375 67.832031 443.84375 90.375 417.117188 C 89.082031 410.925781 52.492188 318.289062 64.816406 292.359375 C 77.136719 266.433594 113.796875 292.011719 135.105469 337.722656 C 135.105469 337.722656 139.222656 336.320312 110.464844 426.714844 C 105.574219 435.59375 97.472656 504.785156 99.9375 509.695312 " fill-opacity="1" fill-rule="nonzero"/><path fill="#87806e" d="M 129.851562 333.757812 L 74.277344 333.757812 C 74.25 333.796875 74.21875 333.835938 74.1875 333.875 C 60.941406 350.992188 68.714844 409.722656 68.546875 416.0625 C 39.535156 437.277344 48.238281 494.132812 50.21875 508.777344 L 59.320312 509.863281 C 56.558594 499.640625 78.902344 437.832031 85.832031 430.242188 C 110.019531 390.175781 122.949219 357.027344 129.851562 333.757812 " fill-opacity="1" fill-rule="nonzero"/><path fill="#39655e" d="M 91.914062 508.8125 C 91.914062 508.8125 85.097656 519.457031 86.667969 520.199219 C 88.234375 520.9375 124.324219 521.703125 126.46875 519.820312 C 130.179688 516.5625 109.207031 513.988281 106.925781 513.390625 C 104.648438 512.808594 99.9375 509.695312 99.9375 509.695312 C 99.9375 509.695312 96.625 509.402344 91.914062 508.8125 " fill-opacity="1" fill-rule="nonzero"/><path fill="#39655e" d="M 50.21875 508.777344 C 50.21875 508.777344 43.601562 518.132812 45.085938 519.023438 C 46.585938 519.910156 76.941406 523.140625 79.265625 521.480469 C 83.269531 518.601562 68.132812 515.039062 65.917969 514.226562 C 63.703125 513.414062 59.320312 509.863281 59.320312 509.863281 C 59.320312 509.863281 56.015625 509.09375 50.21875 508.777344 " fill-opacity="1" fill-rule="nonzero"/><path fill="#8eaca6" d="M 62.429688 341.128906 C 76.195312 360.277344 134.832031 352.550781 134.832031 351.441406 C 135.46875 345.835938 135.960938 340.382812 136.328125 335.007812 C 138.378906 305.347656 136.226562 279.824219 132.738281 259.484375 C 132.0625 255.53125 131.34375 251.78125 130.585938 248.21875 C 115.359375 229.039062 103.726562 211.753906 101.886719 203.144531 C 101.363281 203.328125 100.835938 203.570312 100.304688 203.839844 C 98.265625 204.828125 96.101562 206.363281 93.542969 208.167969 C 56.957031 234.152344 52.015625 326.636719 62.429688 341.128906 " fill-opacity="1" fill-rule="nonzero"/><path fill="#ffffff" d="M 87.511719 219.625 C 94.480469 214.160156 107.839844 221.246094 110.96875 240.695312 C 114.101562 260.144531 114.953125 294.675781 114.953125 294.675781 C 124.28125 306.445312 131.246094 322.0625 137.164062 339.425781 L 132.859375 344.042969 C 132.859375 344.042969 95.480469 310.769531 90.640625 299.851562 C 82.730469 282.03125 64.046875 237.992188 87.511719 219.625 " fill-opacity="1" fill-rule="nonzero"/><path fill="#ffffff" d="M 113.90625 268.96875 C 112.683594 262.179688 111.828125 246.027344 110.96875 240.695312 C 107.839844 221.246094 94.480469 214.160156 87.511719 219.625 C 71.84375 231.886719 75.734375 257.648438 81.886719 277.355469 C 95.054688 276.082031 108.140625 272.800781 113.90625 268.96875 " fill-opacity="1" fill-rule="nonzero"/><path fill="#f7bcaa" d="M 135.859375 335.554688 C 135.859375 335.554688 147.316406 337.925781 142.488281 351.070312 C 135.148438 371.019531 130.410156 349.902344 131.199219 342.609375 C 135.761719 339.5625 135.859375 335.554688 135.859375 335.554688 " fill-opacity="1" fill-rule="nonzero"/><path fill="#ffffff" d="M 101.886719 203.144531 C 103.726562 211.753906 115.359375 229.039062 130.585938 248.21875 C 130.585938 248.207031 130.585938 248.207031 130.585938 248.1875 C 124.871094 221.316406 117.464844 206.164062 117.464844 206.164062 C 117.464844 206.164062 111.859375 199.449219 101.886719 203.144531 " fill-opacity="1" fill-rule="nonzero"/><path fill="#f7bcaa" d="M 92.441406 177.632812 C 92.441406 177.632812 95.402344 188.507812 102.324219 191.679688 C 109.253906 194.851562 104.449219 200.242188 105.230469 203.644531 C 105.90625 206.589844 115.839844 213.632812 118.054688 211.605469 C 123.816406 206.332031 117.953125 193.699219 120.816406 196.15625 C 121.6875 196.902344 127.210938 199.039062 129.519531 198.570312 C 132.449219 197.984375 136.988281 186.15625 137.085938 183.824219 C 137.207031 180.828125 135.527344 175.695312 131.980469 172.78125 C 128.441406 169.863281 92.207031 175.929688 92.441406 177.632812 " fill-opacity="1" fill-rule="nonzero"/><path fill="#f3bbaa" d="M 131.980469 172.78125 C 131.980469 172.78125 135.847656 165.8125 134.453125 164.332031 C 131.113281 160.800781 82.210938 137.667969 92.441406 177.632812 C 103.238281 181.070312 131.980469 172.78125 131.980469 172.78125 " fill-opacity="1" fill-rule="nonzero"/><path fill="#3d3542" d="M 99.679688 189.65625 C 99.679688 189.65625 81.320312 175.976562 85.804688 155.691406 C 87.367188 148.597656 124.183594 149.53125 130.113281 152.730469 C 141.550781 158.90625 139.390625 162.445312 134.085938 165.464844 C 128.996094 168.367188 120.125 163.703125 120.125 163.703125 C 120.125 163.703125 111.894531 176.984375 99.679688 189.65625 " fill-opacity="1" fill-rule="nonzero"/><path fill="#f3bbaa" d="M 114.914062 172.519531 C 114.914062 172.519531 102.625 166.390625 109.464844 179.632812 C 114.675781 178.914062 114.914062 172.519531 114.914062 172.519531 " fill-opacity="1" fill-rule="nonzero"/><path fill="#8eaca6" d="M 101.886719 203.144531 C 103.726562 211.753906 115.359375 229.039062 130.585938 248.21875 C 131.34375 251.78125 132.0625 255.53125 132.738281 259.484375 C 113.644531 242.589844 101.800781 216.40625 98.039062 205.105469 L 101.886719 203.144531 " fill-opacity="1" fill-rule="nonzero"/><path fill="#bab098" d="M 358.109375 98.117188 C 354.765625 100.429688 358.109375 109.269531 364.378906 106.484375 C 370.65625 103.691406 367.167969 91.839844 358.109375 98.117188 " fill-opacity="1" fill-rule="nonzero"/><path fill="#bab098" d="M 361.628906 81.464844 C 357.882812 84.746094 356.960938 90.804688 365.519531 93.136719 C 374.074219 95.46875 377.183594 85.355469 374.851562 81.464844 C 372.515625 77.574219 367.847656 76.015625 361.628906 81.464844 " fill-opacity="1" fill-rule="nonzero"/><path fill="#bab098" d="M 380.15625 -10.65625 C 358.320312 -10.070312 316.242188 10.0625 326.839844 40.269531 C 337.433594 70.472656 410.085938 91.726562 429.140625 73.792969 C 448.195312 55.859375 443.671875 -12.371094 380.15625 -10.65625 " fill-opacity="1" fill-rule="nonzero"/><g clip-path="url(#8e9d2b5056)"><path fill="#f7bcaa" d="M 87.398438 63.382812 C 84.214844 63.382812 81.226562 64.203125 78.621094 65.628906 C 79.355469 63.980469 79.777344 62.199219 79.777344 60.335938 C 79.777344 51.914062 71.582031 45.082031 61.476562 45.082031 C 53.597656 45.082031 46.910156 49.242188 44.328125 55.066406 C 41.257812 53.117188 37.4375 51.941406 33.273438 51.941406 C 23.167969 51.941406 14.984375 58.773438 14.984375 67.199219 C 14.984375 69.140625 15.433594 70.996094 16.226562 72.703125 C 7.34375 73.746094 0.5 80.09375 0.5 87.792969 C 0.5 96.210938 8.691406 103.039062 18.796875 103.039062 C 20.203125 103.039062 21.574219 102.890625 22.898438 102.636719 C 24.410156 109.800781 31.886719 115.246094 40.894531 115.246094 C 44.15625 115.246094 47.199219 114.511719 49.84375 113.265625 C 54.308594 119.757812 60.957031 128.417969 66.820312 132.023438 C 66.378906 129.851562 65.699219 120.488281 65.195312 112.839844 C 65.730469 112.875 66.261719 112.957031 66.820312 112.957031 C 76.066406 112.957031 83.6875 107.230469 84.917969 99.804688 C 85.726562 99.917969 86.554688 99.996094 87.398438 99.996094 C 97.496094 99.996094 105.695312 91.800781 105.695312 81.6875 C 105.695312 71.578125 97.496094 63.382812 87.398438 63.382812 " fill-opacity="1" fill-rule="nonzero"/></g><path fill="#ccefe8" d="M 433.550781 33.039062 C 442.1875 26.488281 514.332031 37.78125 519.429688 46.976562 C 524.566406 56.238281 503.847656 128.558594 494.65625 133.660156 C 491.425781 135.453125 485.574219 135.507812 478.535156 134.484375 C 475.292969 140.707031 470.367188 149.410156 467.46875 151.023438 C 467.304688 147.195312 466.445312 138.660156 466.457031 132.011719 C 446.152344 126.855469 422.910156 116.761719 420.515625 112.445312 C 414.105469 100.898438 426.152344 38.648438 433.550781 33.039062 " fill-opacity="1" fill-rule="nonzero"/></svg>