<?xml version="1.0" standalone="no"?>
<!DOCTYPE svg PUBLIC "-//W3C//DTD SVG 20010904//EN"
 "http://www.w3.org/TR/2001/REC-SVG-20010904/DTD/svg10.dtd">
<svg version="1.0" xmlns="http://www.w3.org/2000/svg"
 width="1280.000000pt" height="1280.000000pt" viewBox="0 0 1280.000000 1280.000000"
 preserveAspectRatio="xMidYMid meet">

<g transform="translate(0.000000,1280.000000) scale(0.100000,-0.100000)"
fill="#000000" stroke="none">
<path d="M0 11453 l0 -1348 1733 -1732 1732 -1733 5 -1023 c5 -908 5 -822 8
768 2 1950 0 1861 59 2049 120 383 435 704 813 825 184 59 39 55 1995 59 1331
2 1813 0 1880 -9 173 -22 346 -84 491 -175 329 -207 545 -537 593 -909 9 -67
11 -549 9 -1880 -3 -1651 -5 -1795 -21 -1860 -29 -118 -56 -196 -102 -290
-167 -343 -454 -577 -836 -682 l-104 -28 -1830 -5 c-1007 -3 -1476 -6 -1044
-8 433 -1 894 -4 1025 -7 l239 -6 1730 -1729 1730 -1730 1348 0 1347 0 0 6400
0 6400 -6400 0 -6400 0 0 -1347z"/>
<path d="M4588 9065 c-378 -59 -691 -324 -813 -689 -55 -165 -55 -145 -53
-1981 1 -1046 4 -1534 9 -1280 3 226 7 599 8 830 l1 420 1308 -1307 1307
-1308 120 -3 c66 -1 -197 -4 -585 -6 l-705 -4 665 -9 c366 -4 1041 -7 1500 -5
915 4 878 2 1060 66 272 96 512 340 609 618 59 168 55 42 59 1928 2 1218 0
1759 -8 1827 -15 132 -42 224 -100 343 -150 308 -441 518 -783 564 -127 18
-3487 13 -3599 -4z m3706 -576 c73 -27 148 -96 183 -167 24 -50 28 -69 28
-147 0 -107 -22 -163 -95 -235 -72 -73 -128 -95 -235 -95 -79 0 -97 4 -142 28
-75 39 -115 78 -154 149 -32 58 -34 70 -34 153 0 78 4 97 28 147 34 70 110
140 180 167 70 27 169 27 241 0z m-1736 -469 c489 -52 922 -311 1193 -715 368
-547 368 -1261 1 -1809 -244 -363 -609 -605 -1052 -697 -157 -33 -439 -33
-600 0 -149 31 -270 71 -399 132 -113 53 -116 54 -105 37 4 -7 3 -8 -5 -4 -6
4 -9 11 -6 16 7 11 -32 33 -45 25 -5 -3 -27 6 -47 20 -21 14 -34 25 -29 25 4
0 21 -9 38 -21 16 -12 31 -19 34 -17 9 9 -77 59 -89 52 -7 -4 -9 -4 -5 1 9 9
-9 35 -24 35 -6 0 -4 -8 3 -17 13 -16 12 -17 -4 -4 -9 8 -15 16 -12 19 6 7
-25 42 -37 42 -5 0 -6 -5 -2 -12 4 -7 3 -8 -5 -4 -6 4 -9 11 -6 15 6 11 -41
54 -53 48 -4 -4 -37 24 -73 60 -35 36 -58 63 -51 59 6 -4 12 -3 12 2 0 12 -45
53 -52 47 -3 -3 -11 3 -19 12 -13 16 -12 17 4 4 9 -7 17 -9 17 -4 0 13 -35 45
-42 38 -3 -3 -11 3 -19 12 -13 16 -12 17 4 4 9 -7 17 -9 17 -3 0 14 -26 33
-34 25 -4 -4 -5 -1 -2 7 3 8 -3 26 -14 40 -11 14 -20 20 -20 13 0 -6 5 -15 10
-18 6 -3 10 -11 10 -18 0 -6 -7 -1 -16 11 -8 12 -12 27 -9 32 10 17 -6 34 -17
19 -7 -11 -8 -9 -4 4 7 21 -11 60 -24 52 -5 -3 -12 0 -16 6 -4 8 -3 9 4 5 17
-11 16 -8 -37 105 -127 267 -178 547 -153 832 20 218 62 375 153 567 216 454
641 789 1129 892 175 36 334 45 498 28z m215 -4277 c-29 -2 -78 -2 -110 0 -32
2 -8 3 52 3 61 0 87 -1 58 -3z"/>
<path d="M8129 8255 c-52 -28 -61 -103 -19 -145 29 -29 67 -35 106 -16 64 30
71 120 11 156 -38 23 -62 24 -98 5z"/>
<path d="M6225 7774 c-11 -3 -58 -12 -105 -21 -261 -49 -527 -197 -722 -402
-394 -413 -491 -1034 -243 -1546 58 -120 136 -241 153 -238 6 2 9 -3 6 -10
-11 -30 212 -240 352 -329 119 -76 306 -151 466 -185 116 -25 419 -25 534 0
117 25 254 72 347 118 605 305 899 979 712 1634 -35 123 -140 332 -219 436
-199 262 -488 448 -811 521 -68 15 -135 21 -270 23 -99 2 -189 2 -200 -1z
m162 -2740 c-3 -3 -12 -4 -19 -1 -8 3 -5 6 6 6 11 1 17 -2 13 -5z m50 0 c-3
-3 -12 -4 -19 -1 -8 3 -5 6 6 6 11 1 17 -2 13 -5z"/>
<path d="M5240 5245 c30 -30 57 -55 59 -55 3 0 -19 25 -49 55 -30 30 -57 55
-59 55 -3 0 19 -25 49 -55z"/>
<path d="M3733 4650 c0 -25 2 -35 4 -22 2 12 2 32 0 45 -2 12 -4 2 -4 -23z"/>
<path d="M3741 4581 c-1 -27 39 -184 46 -178 2 2 -5 38 -16 78 -11 41 -22 85
-24 99 l-4 25 -2 -24z"/>
<path d="M3482 4565 c0 -16 2 -22 5 -12 2 9 2 23 0 30 -3 6 -5 -1 -5 -18z"/>
<path d="M3492 4505 c0 -16 2 -22 5 -12 2 9 2 23 0 30 -3 6 -5 -1 -5 -18z"/>
<path d="M3501 4454 c0 -11 3 -14 6 -6 3 7 2 16 -1 19 -3 4 -6 -2 -5 -13z"/>
<path d="M3511 4414 c0 -11 3 -14 6 -6 3 7 2 16 -1 19 -3 4 -6 -2 -5 -13z"/>
<path d="M3790 4385 c0 -5 5 -17 10 -25 5 -8 10 -10 10 -5 0 6 -5 17 -10 25
-5 8 -10 11 -10 5z"/>
<path d="M3820 4315 c0 -10 60 -115 66 -115 3 0 -9 26 -27 58 -37 65 -39 68
-39 57z"/>
<path d="M3550 4295 c0 -5 5 -17 10 -25 5 -8 10 -10 10 -5 0 6 -5 17 -10 25
-5 8 -10 11 -10 5z"/>
<path d="M3570 4246 c0 -10 60 -126 65 -126 3 0 -9 28 -26 63 -33 65 -39 75
-39 63z"/>
<path d="M3911 4158 c44 -63 112 -139 163 -181 35 -28 25 -16 -30 38 -44 44
-95 101 -112 128 -18 26 -35 47 -38 47 -3 0 5 -15 17 -32z"/>
<path d="M3650 4090 c6 -11 13 -20 16 -20 2 0 0 9 -6 20 -6 11 -13 20 -16 20
-2 0 0 -9 6 -20z"/>
<path d="M3722 3984 c18 -25 64 -79 103 -119 60 -62 62 -64 13 -9 -32 36 -76
89 -99 119 -50 67 -64 73 -17 9z"/>
<path d="M4130 3934 c0 -6 141 -97 145 -92 2 1 -30 24 -71 50 -41 26 -74 45
-74 42z"/>
<path d="M4290 3835 c0 -8 73 -36 78 -30 3 3 3 5 0 5 -3 0 -22 7 -42 15 -20 8
-36 13 -36 10z"/>
<path d="M4391 3791 c26 -17 168 -53 192 -48 20 4 20 4 -3 6 -22 1 -123 26
-185 46 -16 5 -17 5 -4 -4z"/>
<path d="M3930 3765 c13 -14 26 -25 28 -25 3 0 -5 11 -18 25 -13 14 -26 25
-28 25 -3 0 5 -11 18 -25z"/>
<path d="M3970 3736 c0 -2 8 -10 18 -17 15 -13 16 -12 3 4 -13 16 -21 21 -21
13z"/>
<path d="M4638 3733 c18 -2 45 -2 60 0 15 2 0 4 -33 4 -33 0 -45 -2 -27 -4z"/>
<path d="M5013 3733 c31 -2 83 -2 115 0 31 2 5 3 -58 3 -63 0 -89 -1 -57 -3z"/>
<path d="M4014 3701 c7 -11 46 -35 46 -28 0 3 -12 12 -26 22 -15 9 -23 12 -20
6z"/>
<path d="M4085 3654 c24 -19 156 -87 160 -82 2 2 -38 24 -88 50 -51 26 -83 41
-72 32z"/>
<path d="M4270 3560 c8 -5 20 -10 25 -10 6 0 3 5 -5 10 -8 5 -19 10 -25 10 -5
0 -3 -5 5 -10z"/>
<path d="M4320 3540 c8 -5 22 -9 30 -9 10 0 8 3 -5 9 -27 12 -43 12 -25 0z"/>
<path d="M4408 3513 c7 -3 16 -2 19 1 4 3 -2 6 -13 5 -11 0 -14 -3 -6 -6z"/>
<path d="M4448 3503 c7 -3 16 -2 19 1 4 3 -2 6 -13 5 -11 0 -14 -3 -6 -6z"/>
<path d="M4493 3493 c9 -2 23 -2 30 0 6 3 -1 5 -18 5 -16 0 -22 -2 -12 -5z"/>
<path d="M4553 3483 c9 -2 23 -2 30 0 6 3 -1 5 -18 5 -16 0 -22 -2 -12 -5z"/>
</g>
</svg>
