<?xml version="1.0" standalone="no"?>
<!DOCTYPE svg PUBLIC "-//W3C//DTD SVG 20010904//EN"
 "http://www.w3.org/TR/2001/REC-SVG-20010904/DTD/svg10.dtd">
<svg version="1.0" xmlns="http://www.w3.org/2000/svg"
 width="1280.000000pt" height="1280.000000pt" viewBox="0 0 1280.000000 1280.000000"
 preserveAspectRatio="xMidYMid meet">

<g transform="translate(0.000000,1280.000000) scale(0.100000,-0.100000)"
fill="#000000" stroke="none">
<path d="M1783 12789 c-197 -18 -381 -61 -563 -134 -362 -144 -678 -402 -894
-730 -184 -278 -286 -579 -316 -925 -14 -162 -13 -9043 1 -9205 40 -475 232
-889 564 -1220 298 -299 640 -472 1085 -552 88 -16 422 -17 4645 -20 3187 -3
4590 -1 4683 7 153 12 260 30 387 66 486 135 892 448 1153 887 123 207 200
423 249 697 16 88 17 422 20 4645 3 3214 1 4589 -7 4684 -40 491 -223 894
-565 1237 -294 297 -647 476 -1085 551 -100 17 -330 18 -4685 19 -2519 1
-4621 -2 -4672 -7z m7517 -2479 c273 -10 458 -22 663 -42 l117 -11 0 -723 0
-724 -504 0 c-534 0 -602 -5 -742 -51 -182 -59 -310 -198 -358 -384 -31 -123
-36 -232 -36 -797 l0 -568 795 0 796 0 -6 -32 c-3 -18 -48 -366 -100 -773 -52
-407 -97 -755 -100 -772 l-6 -33 -689 0 -690 0 -2 -2058 -3 -2057 -827 -3
-828 -2 0 2060 0 2060 -695 0 -695 0 0 805 0 805 695 0 695 0 0 693 c0 800 6
891 75 1168 194 770 735 1271 1525 1409 229 40 458 47 920 30z"/>
</g>
</svg>
