<?xml version="1.0" standalone="no"?>
<!DOCTYPE svg PUBLIC "-//W3C//DTD SVG 20010904//EN"
 "http://www.w3.org/TR/2001/REC-SVG-20010904/DTD/svg10.dtd">
<svg version="1.0" xmlns="http://www.w3.org/2000/svg"
 width="1280.000000pt" height="1280.000000pt" viewBox="0 0 1280.000000 1280.000000"
 preserveAspectRatio="xMidYMid meet">

<g transform="translate(0.000000,1280.000000) scale(0.100000,-0.100000)"
fill="#000000" stroke="none">
<path d="M2630 10921 c-172 -37 -312 -112 -443 -239 -124 -121 -209 -270 -254
-448 -17 -65 -18 -271 -18 -3834 0 -3561 1 -3769 18 -3834 47 -183 117 -306
252 -441 142 -142 277 -213 472 -251 113 -21 7373 -21 7486 0 195 38 330 109
472 251 135 135 205 258 252 441 17 65 18 273 18 3834 0 3563 -1 3769 -18
3834 -44 171 -121 311 -241 434 -127 132 -281 216 -461 253 -87 18 -219 19
-3770 18 -3501 0 -3684 -1 -3765 -18z m2046 -2015 c29 -7 80 -29 115 -47 291
-153 354 -577 120 -809 -220 -218 -628 -212 -827 14 -139 158 -165 405 -62
598 65 121 199 220 338 247 30 6 64 13 75 15 34 8 187 -3 241 -18z m3094
-1356 c532 -66 885 -426 990 -1010 35 -196 40 -363 40 -1392 l0 -998 -520 0
-520 0 0 973 c0 613 -4 1004 -10 1057 -40 319 -182 497 -428 532 -283 41 -542
-135 -629 -428 -16 -54 -18 -145 -21 -1096 l-3 -1038 -514 0 -515 0 0 1208 c0
665 -5 1380 -11 1588 -6 208 -12 414 -12 457 l-2 77 444 0 c244 0 446 -2 449
-5 3 -3 13 -83 23 -178 24 -240 29 -277 37 -277 4 0 28 28 52 62 178 246 499
431 811 467 107 12 242 13 339 1z m-2750 -1735 l0 -1665 -517 2 -518 3 -3
1663 -2 1662 520 0 520 0 0 -1665z"/>
</g>
</svg>
